<svg xmlns="http://www.w3.org/2000/svg" width="100%" height="100%" viewBox="0 0 10 5" fill-rule="evenodd" stroke-linejoin="round" stroke-miterlimit="10" xmlns:v="https://vecta.io/nano"><path d="M0 4.501L.057 4.5l.057-.004.056-.006.057-.009.057-.012.057-.013.057-.017.057-.018.056-.022.057-.023.057-.026.057-.028.057-.031.056-.033.057-.035.057-.037.057-.039.057-.042.057-.043.056-.045.057-.048.057-.049.057-.051.057-.052.056-.055.057-.055.057-.058.057-.059.057-.06.057-.061.056-.063.057-.064.057-.065.057-.065.057-.067.056-.067.057-.069.057-.068.057-.07.057-.07.057-.07.056-.07.057-.071.057-.07.057-.071.057-.07.056-.071.057-.07.057-.07.057-.069.057-.069.057-.068.056-.067.057-.067.057-.066.057-.064.057-.064.056-.063.057-.061.057-.06.057-.059.057-.057.057-.056.056-.054.057-.052.057-.051.057-.049.057-.047.056-.046.057-.043.057-.041.057-.039.057-.037.057-.035.056-.033.057-.03.057-.028.057-.026.057-.023.056-.021.057-.019.057-.016.057-.014.057-.011.057-.009.056-.006.057-.004L5 .543l.057.002.057.004.056.006.057.009.057.012.057.013.057.017.057.019.056.021.057.024.057.026.057.028.057.031.056.032.057.036.057.037.057.039.057.042.057.043.056.046.057.047.057.049.057.051.057.053.056.054.057.056.057.057.057.059.057.06.057.062.056.063.057.063.057.065.057.066.057.067.056.067.057.069.057.068.057.07.057.069.057.071.056.07.057.071.057.07.057.071.057.07.056.071.057.07.057.07.057.069.057.069.057.068.056.067.057.067.057.065.057.065.057.064.056.062.057.062.057.06.057.058.057.058.057.055.056.054.057.053.057.05.057.049.057.047.056.046.057.043.057.041.057.039.057.037.057.035.056.032.057.031.057.028.057.025.057.024.056.021.057.018.057.016.057.014.057.011.057.008.056.006.057.004.057.001" fill="none" stroke="#efefef" stroke-width=".95"/></svg>
